<?xml version="1.0" standalone="no"?>
<!DOCTYPE svg PUBLIC "-//W3C//DTD SVG 20010904//EN"
 "http://www.w3.org/TR/2001/REC-SVG-20010904/DTD/svg10.dtd">
<svg version="1.0" xmlns="http://www.w3.org/2000/svg"
 width="5806.000000pt" height="4069.000000pt" viewBox="0 0 5806.000000 4069.000000"
 preserveAspectRatio="xMidYMid meet">

<g transform="translate(0.000000,4069.000000) scale(0.100000,-0.100000)"
fill="#000000" stroke="none">
<path d="M26530 38883 c-8 -3 -25 -15 -37 -26 -28 -25 -31 -83 -7 -133 33 -70
229 -228 370 -297 119 -59 169 -72 279 -72 85 0 107 4 148 24 52 25 87 70 87
109 0 23 -2 23 -42 15 -65 -12 -179 -7 -244 12 -86 25 -221 96 -311 164 -79
59 -203 183 -203 201 0 11 -16 12 -40 3z"/>
<path d="M27411 36999 c-32 -30 -25 -73 32 -188 71 -142 132 -226 247 -343 80
-81 120 -114 165 -135 130 -60 259 -17 281 92 l6 30 -67 -3 c-95 -5 -167 32
-278 141 -105 104 -174 197 -237 318 -49 95 -63 108 -111 109 -8 0 -26 -10
-38 -21z"/>
<path d="M31682 36458 c375 -929 458 -1773 262 -2683 -114 -527 -349 -1057
-647 -1458 -602 -810 -1469 -1284 -2902 -1586 -329 -69 -987 -186 -1500 -265
-1414 -220 -3009 -358 -5075 -441 -904 -36 -1114 -40 -2100 -40 -1143 0 -1566
13 -2355 75 -137 11 -369 29 -515 40 -1157 89 -1498 127 -1959 216 -612 117
-1179 318 -1548 548 -402 249 -667 574 -851 1043 -204 519 -282 1201 -218
1903 8 80 13 146 11 148 -4 5 -84 -288 -119 -440 -90 -385 -126 -688 -133
-1106 -16 -923 124 -1367 574 -1820 110 -111 138 -144 125 -149 -313 -112
-545 -320 -678 -608 -67 -145 -104 -353 -86 -486 l7 -57 112 69 c62 38 116 69
120 70 5 0 33 39 63 87 69 108 256 299 395 403 111 83 237 163 367 233 l85 46
121 -63 121 -63 -87 -43 c-190 -93 -373 -222 -488 -342 -239 -251 -358 -573
-310 -842 10 -51 21 -98 25 -106 6 -10 20 -2 53 32 59 59 263 221 413 328 478
342 912 583 1180 655 l89 24 171 -35 c275 -56 577 -94 1055 -135 590 -50 1647
-107 2330 -125 118 -3 234 -8 258 -11 l42 -5 0 -132 c0 -524 201 -842 700
-1110 395 -212 1068 -403 1917 -543 l222 -36 34 26 c78 59 175 201 215 312 33
93 42 172 30 273 -11 97 -51 217 -107 326 -135 263 -374 499 -761 755 -69 45
-126 83 -127 83 -1 1 130 1 290 -1 l292 -3 80 -61 c540 -413 831 -788 901
-1158 58 -305 -90 -628 -382 -836 -61 -44 -246 -140 -318 -165 -21 -8 -40 -19
-43 -24 -2 -6 24 -69 58 -140 33 -72 102 -222 151 -335 50 -113 94 -208 98
-213 3 -4 43 15 88 42 221 133 390 282 441 390 44 93 55 178 47 371 -3 91 -9
182 -12 203 l-6 38 33 -5 c122 -21 859 -69 1294 -86 347 -13 2314 -13 2669 0
149 6 334 12 411 15 580 21 1541 126 2205 241 814 140 1428 318 1829 530 273
144 470 324 575 524 36 69 83 202 92 260 3 19 7 41 10 48 16 50 24 238 15 372
-2 30 -3 112 -2 182 1 124 2 128 24 132 313 67 712 190 942 291 770 335 1241
856 1364 1511 70 367 80 952 25 1394 -152 1217 -703 2424 -1595 3490 -80 96
-153 181 -161 188 -9 7 16 -65 54 -160z m-12113 -7140 c-33 -68 -64 -124 -69
-126 -16 -6 -252 119 -247 131 2 7 12 36 21 65 l18 52 169 0 168 0 -60 -122z
m2986 80 c-73 -15 -484 -15 -515 -1 -20 9 39 12 270 11 224 0 283 -3 245 -10z
m978 1 c-15 -15 -123 -27 -161 -17 -62 16 -32 28 70 28 74 0 99 -3 91 -11z"/>
<path d="M30718 36603 c-27 -31 -27 -62 -2 -166 54 -221 173 -452 302 -585
143 -146 325 -130 376 33 6 20 3 20 -63 17 -114 -7 -186 37 -291 179 -95 127
-187 327 -230 497 -10 39 -13 42 -44 42 -19 0 -39 -7 -48 -17z"/>
<path d="M26792 34551 l-33 -100 26 -51 c58 -114 162 -191 259 -192 80 -1 146
43 187 124 25 49 25 49 -16 32 -80 -33 -188 -2 -265 77 -23 23 -59 80 -81 126
-23 46 -42 83 -43 83 -1 0 -16 -45 -34 -99z"/>
<path d="M42592 30889 c-834 -53 -1572 -438 -1953 -1019 l-16 -24 -132 58
c-324 139 -648 225 -1011 267 -156 18 -538 16 -695 -5 -420 -54 -776 -174
-1100 -371 -672 -408 -1003 -1048 -839 -1623 40 -142 125 -302 234 -443 l20
-27 -36 -43 c-20 -24 -54 -70 -76 -102 l-40 -59 -39 119 c-49 146 -157 366
-243 496 -407 611 -1106 1007 -1997 1132 -154 22 -559 31 -727 16 -527 -47
-1010 -213 -1376 -475 -73 -53 -92 -62 -107 -53 -13 8 -57 -2 -201 -45 -545
-167 -2079 -609 -2753 -794 -207 -57 -612 -174 -845 -244 -74 -22 -223 -65
-330 -96 -964 -278 -2024 -632 -2795 -934 -390 -153 -421 -167 -399 -173 127
-39 475 -137 534 -151 8 -2 42 -11 75 -20 33 -9 71 -19 85 -22 14 -3 34 -8 45
-11 11 -4 25 -8 30 -9 33 -9 63 -16 85 -20 14 -3 77 -18 140 -33 63 -16 132
-31 153 -35 20 -4 37 -12 37 -19 0 -7 -48 -201 -106 -432 -130 -513 -174 -698
-170 -703 8 -8 131 -21 137 -14 3 4 45 147 94 317 82 288 147 492 225 708 l33
89 31 -7 c17 -3 42 -8 56 -11 14 -3 104 -20 200 -39 96 -19 189 -36 205 -39
118 -20 329 -55 370 -62 28 -4 53 -8 58 -10 4 -1 18 -2 32 -3 14 0 25 -6 25
-12 0 -5 -47 -94 -104 -197 -194 -351 -434 -818 -424 -827 2 -1 38 -5 80 -9
l77 -7 144 203 c79 112 231 326 337 477 106 150 202 284 214 297 l21 24 80
-15 c44 -9 94 -18 110 -20 17 -2 118 -18 225 -36 107 -17 211 -33 230 -35 19
-3 64 -9 98 -15 35 -5 87 -12 115 -15 29 -3 67 -9 85 -12 l34 -7 -118 -79
c-218 -147 -506 -389 -606 -508 l-43 -51 48 6 c93 13 234 69 497 197 247 120
497 220 556 220 16 0 32 -17 60 -67 52 -89 175 -218 271 -283 43 -29 79 -54
80 -54 1 -1 -11 -37 -26 -81 l-29 -80 -168 -7 c-208 -8 -410 -43 -539 -93 -39
-15 -37 -15 70 -10 136 7 388 31 519 51 54 8 101 12 103 10 3 -3 0 -29 -7 -58
-6 -29 -14 -112 -17 -185 l-6 -131 -81 -7 c-45 -4 -92 -9 -106 -10 -126 -16
-303 -20 -775 -20 -302 0 -604 4 -670 8 -193 13 -237 16 -495 37 -135 12 -261
23 -280 25 -19 3 -150 16 -290 30 -260 26 -282 28 -430 45 -97 11 -140 17
-190 24 -19 3 -60 8 -90 11 -30 3 -64 8 -75 11 -11 2 -40 6 -65 8 -25 3 -79
10 -120 16 -41 6 -88 13 -105 15 -16 3 -68 11 -115 20 -130 23 -117 35 -124
-122 -7 -147 -43 -657 -51 -734 l-5 -46 112 -18 c428 -65 1103 -147 1482 -179
98 -9 181 -17 183 -20 2 -2 -31 -26 -74 -53 -530 -340 -1088 -447 -1506 -289
-253 95 -495 300 -697 587 l-43 61 41 -7 c47 -8 41 -24 67 185 20 158 64 450
71 470 14 35 52 246 46 251 -4 4 -43 14 -87 24 -126 26 -516 125 -558 141 -20
7 -40 14 -45 14 -15 0 -489 155 -625 205 -54 19 -100 35 -102 35 -14 0 -274
-883 -275 -935 -1 -37 -17 -35 -161 19 -203 76 -639 263 -658 282 -9 9 267
761 290 789 10 13 79 174 79 184 0 5 -33 30 -72 56 -102 68 -197 144 -283 230
-71 69 -85 78 -259 159 -101 47 -188 86 -193 86 -6 0 -22 -17 -36 -38 -90
-137 -389 -415 -687 -638 -543 -408 -1174 -734 -1972 -1020 -786 -281 -2257
-658 -3101 -794 -543 -87 -885 -113 -1522 -114 -487 -1 -606 7 -877 60 -520
101 -886 336 -1066 684 -93 178 -117 287 -109 497 5 166 24 254 87 410 25 63
32 89 21 81 -9 -7 -104 -85 -211 -173 -278 -229 -348 -285 -354 -285 -3 0 -26
16 -52 35 -54 41 -136 67 -300 95 -66 11 -142 26 -169 35 -27 8 -53 11 -58 6
-5 -5 -11 -60 -14 -122 -20 -413 208 -655 682 -722 l90 -12 6 -245 c7 -228 27
-430 47 -466 7 -13 19 -2 59 48 l49 63 -23 57 c-56 140 -68 211 -68 403 0 187
8 234 61 361 l16 39 19 -62 c30 -96 92 -128 170 -87 17 8 33 14 35 12 2 -2 15
-30 29 -62 14 -32 42 -83 61 -114 l36 -56 -26 -54 c-15 -30 -25 -56 -23 -59 3
-2 19 14 36 36 l32 40 60 -69 c234 -272 629 -442 1173 -505 71 -8 131 -17 134
-20 7 -7 -129 -324 -220 -513 -43 -90 -78 -166 -78 -170 0 -6 -26 -17 -154
-67 -27 -10 -8 -16 200 -64 780 -178 1682 -324 2574 -416 693 -71 1323 -112
2270 -147 440 -17 2524 -17 3195 0 2134 53 2477 60 3460 72 1773 21 2570 40
3045 71 738 48 1114 33 1444 -55 l87 -23 23 36 c157 251 308 587 391 866 1 6
-57 -4 -129 -22 -181 -44 -461 -96 -715 -133 -262 -37 -1721 -200 -2111 -235
-157 -14 -302 -27 -322 -29 -21 -2 -38 -1 -38 2 0 4 22 19 48 34 124 69 264
188 486 411 l229 229 96 -13 c138 -20 376 -18 481 4 130 28 270 78 446 159
280 131 370 158 530 158 106 0 187 -13 389 -60 66 -15 154 -34 195 -41 151
-25 501 -9 522 25 4 6 8 24 8 40 0 26 2 28 33 22 144 -26 409 -34 527 -16 36
6 99 19 140 30 l76 20 104 -45 c58 -24 106 -48 107 -52 4 -10 -199 -130 -312
-186 l-71 -35 -18 -79 c-100 -438 -238 -924 -384 -1353 -14 -42 515 508 779
811 383 437 779 957 1084 1422 42 64 80 117 83 117 4 0 50 -9 102 -20 213 -44
478 -13 657 79 l42 21 11 -42 c21 -84 53 -165 111 -283 165 -335 474 -633 826
-796 215 -100 515 -169 734 -169 27 0 49 -2 49 -3 0 -2 -9 -30 -21 -63 -78
-226 -84 -485 -18 -744 51 -197 130 -353 262 -516 l67 -84 -34 -113 c-70 -230
-90 -432 -62 -612 44 -288 178 -494 429 -664 56 -38 285 -151 307 -151 43 0
-21 -22 -150 -50 -341 -76 -616 -188 -845 -344 -247 -168 -426 -407 -507 -676
-21 -70 -36 -324 -21 -347 7 -9 36 -3 118 22 l110 35 1 102 c0 87 5 116 31
189 79 226 282 478 496 614 l27 17 -30 -58 c-39 -74 -39 -131 0 -126 14 1 153
40 310 87 549 162 758 204 1054 212 131 4 187 2 182 -5 -10 -17 -120 -49 -326
-96 -324 -74 -755 -204 -1011 -306 -357 -143 -483 -243 -605 -483 -60 -119
-64 -129 -43 -123 308 86 733 183 1299 295 223 44 498 101 610 126 500 113
657 138 880 139 181 1 268 -8 296 -29 18 -14 18 -16 -6 -35 -54 -44 -164 -114
-252 -160 -99 -52 -216 -101 -531 -225 -198 -78 -555 -251 -1121 -544 -287
-148 -289 -149 -250 -157 55 -10 109 -39 132 -71 48 -68 51 -163 13 -374 -11
-57 -18 -105 -17 -107 2 -1 40 19 86 45 l82 48 -6 130 c-3 72 -11 150 -16 174
-6 24 -8 46 -6 49 3 2 28 -16 56 -41 86 -78 135 -75 297 15 160 90 426 217
813 388 531 235 653 278 820 287 l85 4 -41 -38 c-54 -50 -183 -117 -374 -193
-168 -67 -322 -145 -550 -278 -229 -133 -215 -130 155 33 394 174 613 253 840
300 153 33 324 43 381 23 l41 -15 -25 61 c-69 168 -102 377 -84 521 14 104 31
165 47 165 7 0 18 14 26 32 20 49 120 178 175 227 68 60 283 178 374 204 110
32 396 32 556 -1 172 -34 914 -252 1113 -326 52 -20 96 -34 98 -32 5 5 -340
170 -527 252 -96 42 -386 164 -644 271 -497 206 -726 305 -973 423 -146 70
-153 75 -163 109 -5 20 -10 44 -10 53 0 9 -10 25 -22 35 l-23 18 115 117 116
117 167 -79 c93 -43 338 -167 545 -276 207 -108 438 -228 512 -267 74 -39 302
-159 505 -267 400 -213 506 -268 490 -252 -40 38 -660 429 -1090 687 -484 290
-757 459 -932 576 l-71 48 58 88 c213 324 352 671 380 949 38 371 -113 755
-390 994 -38 32 -76 63 -86 68 -16 9 -12 17 41 77 235 264 401 516 529 799
142 317 206 584 206 867 0 240 -40 412 -145 620 l-54 108 82 47 c109 63 235
148 332 224 44 35 85 67 91 71 7 6 25 -21 53 -75 24 -47 73 -122 109 -168 230
-287 658 -449 1055 -399 l57 7 0 -145 c0 -81 4 -175 9 -211 5 -36 12 -87 16
-115 29 -234 163 -569 323 -805 l57 -85 70 -18 c91 -23 167 -59 231 -107 45
-34 56 -50 88 -126 59 -141 78 -231 83 -389 6 -167 -8 -245 -91 -520 -83 -275
-92 -411 -45 -650 39 -197 114 -390 294 -760 59 -121 176 -368 260 -550 210
-453 295 -628 418 -861 103 -196 252 -459 316 -559 27 -42 31 -45 25 -20 -18
78 -137 430 -241 715 -202 552 -247 694 -408 1272 -154 558 -195 774 -195
1046 l0 154 43 16 c86 33 255 123 362 193 126 82 246 197 293 280 54 96 66
163 56 324 -18 289 -5 384 67 495 38 58 38 59 71 49 18 -6 152 -14 298 -18
236 -7 271 -10 320 -30 161 -63 257 -199 267 -381 10 -171 -38 -304 -212 -590
-228 -377 -269 -446 -346 -595 -140 -271 -214 -493 -264 -787 -67 -400 -73
-776 -16 -1063 l18 -90 21 46 c31 67 48 140 82 358 22 146 41 226 74 325 85
252 249 619 467 1044 223 436 350 625 558 832 194 193 297 247 446 238 226
-15 407 -243 407 -513 -1 -175 -62 -312 -227 -505 -38 -44 -93 -100 -122 -124
l-52 -43 42 -19 c23 -10 66 -33 95 -51 29 -19 58 -30 64 -27 6 4 8 3 5 -2 -3
-6 22 -32 55 -59 43 -36 84 -86 143 -175 85 -128 120 -211 147 -342 18 -91 15
-350 -6 -493 -21 -146 -141 -724 -201 -965 -23 -96 -42 -176 -40 -178 1 -1 32
75 70 170 64 164 181 514 455 1358 67 206 161 479 208 607 73 195 91 234 111
243 56 26 194 23 387 -6 l32 -4 -48 -123 c-26 -67 -73 -189 -105 -272 -74
-191 -388 -941 -651 -1557 -112 -263 -207 -485 -210 -495 -15 -44 319 576 423
787 627 1273 734 1474 916 1714 77 103 240 266 337 338 106 80 289 175 326
171 51 -7 170 -42 229 -68 32 -14 61 -25 66 -25 4 0 46 44 92 98 346 401 529
787 568 1198 64 685 -371 1518 -981 1878 -51 31 -96 57 -101 58 -5 2 3 37 17
78 15 41 33 109 40 150 18 102 18 309 -1 407 -100 528 -621 1001 -1284 1164
-43 10 -43 11 -37 47 14 86 18 462 7 572 -48 454 -187 840 -446 1235 -544 829
-1581 1459 -2660 1614 -251 36 -486 46 -733 30z m763 -1029 c138 -7 202 -14
275 -34 396 -104 698 -384 791 -736 34 -126 32 -311 -5 -433 -49 -163 -122
-283 -255 -420 -131 -135 -272 -230 -400 -268 -23 -7 -44 -18 -46 -23 -1 -6
-8 -56 -14 -110 -13 -114 -55 -247 -111 -355 -172 -329 -538 -570 -942 -621
-590 -74 -1121 235 -1249 725 -27 102 -29 262 -5 355 74 291 323 494 664 542
48 6 88 12 90 13 1 1 -11 31 -27 67 -70 153 -102 363 -83 531 15 137 34 206
84 307 53 110 174 233 292 299 74 42 263 113 331 125 284 49 318 51 610 36z
m-3944 -66 c322 -55 650 -248 798 -469 69 -104 99 -198 100 -321 l1 -51 70
-52 c120 -89 208 -214 261 -372 29 -84 33 -106 33 -209 0 -131 -16 -205 -69
-315 -96 -201 -291 -373 -595 -525 -312 -156 -603 -226 -831 -201 -165 19
-237 39 -354 97 -180 91 -301 231 -355 411 -18 59 -21 92 -18 177 l3 104 -55
6 c-113 13 -220 86 -260 178 -19 44 -22 65 -18 142 5 104 31 167 98 240 28 31
36 46 30 56 -12 18 -47 124 -55 165 -36 171 5 378 102 525 120 181 329 323
568 387 166 44 384 55 546 27z m1857 -469 c145 -34 265 -128 333 -260 45 -86
56 -120 68 -210 41 -288 -146 -495 -446 -495 -165 0 -283 44 -392 145 -132
123 -186 247 -179 413 5 135 31 186 143 286 46 41 98 82 114 91 86 44 243 57
359 30z m-6798 -860 c283 -77 487 -255 577 -505 24 -67 26 -89 27 -215 1 -170
-12 -224 -89 -380 -61 -123 -134 -218 -216 -284 l-55 -44 15 -51 c23 -78 21
-351 -3 -436 -74 -267 -275 -505 -541 -642 -128 -66 -229 -96 -395 -119 -136
-19 -339 10 -468 67 -148 65 -290 196 -361 333 -165 317 -36 653 317 830 l64
32 -39 42 c-92 100 -165 232 -205 374 -33 118 -32 292 3 389 68 187 242 352
500 473 107 50 325 123 439 147 91 19 343 12 430 -11z m-3640 -351 c14 -3 48
-8 75 -10 72 -6 150 -23 170 -38 24 -18 13 -46 -20 -47 -14 -1 -31 -2 -37 -2
-17 -1 -146 12 -179 18 -72 14 -159 47 -159 61 0 28 71 37 150 18z m830 -327
c8 -2 24 -6 35 -10 11 -3 33 -8 49 -11 37 -7 50 -20 42 -41 -5 -14 -15 -15
-63 -9 -32 4 -114 10 -182 13 -109 5 -126 8 -129 24 -6 30 51 46 148 41 47 -2
92 -5 100 -7z m-1441 -313 c6 -5 9 -4 -99 -63 -103 -57 -112 -57 -161 -5 -21
22 -21 25 -6 48 12 17 28 26 54 29 42 5 205 -2 212 -9z m2423 -37 c197 -96
314 -339 252 -521 -19 -55 -96 -144 -157 -179 -67 -39 -171 -67 -251 -67 -134
0 -243 48 -340 149 -80 85 -110 154 -111 256 0 72 3 87 35 149 89 175 213 248
415 243 87 -2 108 -6 157 -30z m-1341 -110 c235 -62 404 -193 454 -354 9 -29
20 -53 23 -54 39 -4 69 -15 142 -51 156 -76 286 -237 325 -399 59 -254 -45
-506 -326 -788 -204 -203 -394 -322 -604 -376 -95 -25 -276 -25 -364 -1 -191
52 -344 196 -387 364 l-17 67 -58 -9 c-69 -11 -153 5 -200 40 -101 74 -135
224 -80 349 l21 47 -39 46 c-89 110 -120 194 -128 347 -6 132 9 201 70 320 33
64 63 101 147 185 150 150 307 236 510 281 127 28 377 21 511 -14z m-1655 -4
c8 -3 14 -13 12 -21 -7 -36 -159 -35 -166 1 -2 10 6 21 20 27 22 9 102 5 134
-7z m14104 -353 c262 -42 533 -235 712 -509 27 -41 51 -77 52 -78 1 -2 52 8
112 22 130 29 343 49 434 40 36 -3 88 -8 115 -11 149 -14 358 -75 498 -145
420 -212 678 -624 654 -1043 -21 -364 -250 -729 -605 -964 l-55 -37 39 -7
c266 -55 524 -250 643 -487 150 -297 127 -599 -61 -825 l-24 -29 -74 44 c-150
89 -211 166 -285 359 -53 138 -93 208 -157 273 -149 150 -399 190 -597 95 -24
-12 -91 -59 -150 -106 -58 -47 -124 -93 -146 -103 -83 -38 -141 -18 -234 80
l-43 46 6 70 c7 94 38 192 80 254 19 28 29 51 23 51 -44 0 -226 35 -296 56
-227 69 -491 236 -710 448 -160 157 -266 308 -316 454 -31 89 -37 120 -41 226
l-3 88 -74 33 c-259 112 -421 353 -472 701 -21 147 -15 359 14 467 62 235 236
395 496 458 50 12 119 33 154 46 107 41 196 51 311 33z m-8440 -711 c100 -25
299 -126 381 -193 l66 -54 97 58 c429 255 954 251 1306 -10 118 -88 250 -248
282 -343 6 -17 15 -37 19 -43 5 -6 18 -51 30 -100 27 -109 29 -291 5 -400 -34
-157 -106 -316 -203 -451 -29 -41 -53 -76 -53 -78 0 -2 31 -1 69 2 211 18 458
-79 607 -239 235 -252 256 -574 51 -786 -105 -109 -305 -217 -485 -262 l-43
-11 21 -29 c91 -128 79 -306 -33 -463 -108 -151 -233 -217 -410 -217 -113 0
-186 18 -296 72 -155 75 -221 168 -229 319 -9 173 73 338 212 430 l65 43 -69
72 c-77 81 -149 214 -171 315 -11 56 -8 200 6 246 l7 22 -59 -17 c-84 -23
-373 -23 -463 1 -36 10 -76 20 -90 23 -14 3 -72 21 -129 40 -346 115 -580 305
-661 537 l-18 52 -79 6 c-137 12 -251 68 -364 179 -115 113 -197 252 -252 426
-56 177 -55 316 3 441 35 75 149 196 236 250 33 21 89 59 123 85 135 102 313
129 521 77z m-14607 -1804 c139 -201 288 -312 434 -322 78 -6 156 11 276 58
43 18 80 29 84 26 8 -9 -63 -131 -114 -195 -150 -187 -378 -374 -580 -476
-135 -68 -313 -114 -384 -99 l-28 5 41 62 c23 33 68 97 101 141 113 153 147
249 147 425 0 102 -23 292 -54 435 -16 80 -23 85 77 -60z m-887 -157 c-19
-216 -66 -507 -137 -852 -27 -132 -51 -247 -54 -257 -8 -24 53 -31 255 -31
201 1 297 -14 815 -128 606 -133 799 -164 1087 -176 287 -12 547 19 1118 131
557 110 745 134 1041 135 203 0 290 -8 674 -66 165 -25 334 -48 375 -51 l75
-6 34 -49 c53 -76 205 -233 295 -303 96 -74 192 -134 299 -186 l78 -38 -43 -5
c-46 -6 -388 -18 -1063 -38 -552 -17 -3071 -17 -3665 0 -1449 40 -2292 82
-3640 182 -294 22 -762 55 -1040 75 -581 41 -1013 76 -1355 110 -338 34 -615
68 -615 74 1 3 31 29 67 56 61 46 181 151 433 379 l95 86 70 0 c280 1 738 32
1037 70 l158 20 82 -20 c71 -18 267 -74 333 -95 11 -4 -42 26 -119 66 l-139
73 179 32 c99 17 180 30 182 29 7 -6 -23 -210 -31 -217 -13 -8 417 -149 573
-187 278 -67 446 -85 754 -78 251 5 311 11 781 83 278 42 547 74 635 74 l65 1
-85 28 c-119 39 -258 112 -312 164 -43 41 -256 192 -300 212 -65 29 -160 55
-206 55 -27 0 -32 3 -28 18 3 9 26 84 50 166 25 82 49 152 53 156 4 4 89 31
188 60 210 62 686 222 830 279 55 21 106 40 113 40 11 1 13 -14 8 -71z m9835
-252 c62 -83 156 -168 262 -238 51 -33 83 -60 75 -63 -16 -6 -342 -64 -345
-62 -1 1 -13 92 -27 202 -14 110 -28 214 -30 230 -5 26 -4 28 7 11 7 -10 33
-46 58 -80z m-11506 -221 c-109 -94 -387 -233 -620 -310 -121 -41 -235 -68
-235 -57 0 2 36 42 80 88 43 47 86 97 95 112 16 25 38 32 358 113 188 48 347
87 352 87 6 1 -8 -14 -30 -33z m24322 -647 c88 -54 287 -149 385 -183 l77 -27
-46 -57 c-98 -119 -175 -264 -233 -440 -36 -106 -42 -117 -67 -122 -57 -13
-138 -9 -179 10 -99 45 -114 154 -51 366 20 66 41 151 48 189 12 69 8 253 -6
289 -10 24 -4 22 72 -25z m-3121 -3243 c68 -38 124 -95 124 -125 0 -11 -3 -20
-6 -20 -9 0 -164 132 -194 166 -22 24 -23 26 -5 20 11 -4 48 -23 81 -41z"/>
<path d="M12159 29353 c-56 -90 -121 -221 -163 -330 -36 -97 -165 -500 -192
-603 -10 -36 -20 -68 -23 -72 -3 -4 -98 -35 -211 -68 -787 -236 -1152 -414
-1325 -649 -25 -36 -144 -257 -183 -343 -2 -4 45 7 105 23 190 52 491 126 723
178 238 53 764 161 785 161 8 0 15 -22 20 -57 11 -88 41 -173 83 -239 46 -71
170 -191 267 -258 39 -27 74 -53 78 -56 5 -4 -150 -90 -345 -191 -536 -278
-575 -299 -552 -299 43 0 126 -32 160 -62 88 -78 103 -190 60 -453 -15 -88
-30 -169 -33 -179 -5 -18 -3 -18 28 3 19 12 69 41 112 64 l79 42 -7 140 c-4
77 -13 176 -21 220 -7 44 -14 84 -14 90 0 5 19 -9 43 -32 75 -73 113 -93 176
-93 65 0 107 18 315 134 121 68 399 204 544 266 47 20 68 40 43 40 -6 0 -66
27 -135 59 l-126 60 64 183 c75 216 186 507 226 592 53 115 80 179 80 191 0 7
-28 32 -62 56 -122 82 -224 167 -319 266 -228 238 -344 505 -347 798 -1 172
34 323 110 468 21 41 -4 12 -43 -50z"/>
<path d="M11402 28904 c-610 -152 -1012 -352 -1308 -651 -211 -212 -363 -497
-404 -755 -12 -71 -11 -311 1 -322 3 -3 32 3 64 13 33 11 98 31 145 45 l86 26
-4 102 c-4 113 10 195 53 308 63 165 193 357 345 510 94 95 271 240 293 240 5
0 -1 -15 -13 -32 -51 -78 -79 -192 -48 -203 7 -3 176 42 373 100 198 59 422
122 498 142 l139 37 -7 35 c-10 51 -7 327 3 381 16 84 22 83 -216 24z"/>
<path d="M12855 28235 c65 -59 200 -154 306 -216 84 -48 84 -49 139 -39 30 6
150 13 265 16 224 6 392 -9 422 -39 13 -12 9 -19 -29 -51 -24 -21 -82 -63
-131 -94 l-87 -56 62 -24 c111 -41 527 -172 723 -227 l190 -53 30 27 c37 34
128 90 260 161 55 29 116 63 135 75 37 23 151 59 238 75 279 52 618 20 1065
-101 l108 -29 130 40 c72 22 134 40 137 40 4 1 -23 14 -60 30 -71 30 -166 50
-613 124 -1010 168 -2121 298 -3265 381 l-75 5 50 -45z"/>
<path d="M17355 27594 c-359 -76 -814 -199 -1175 -316 l-165 -54 190 -21 189
-21 128 39 c191 57 450 126 635 169 l165 38 160 -49 c88 -27 223 -74 301 -103
78 -30 151 -57 162 -60 11 -4 -89 48 -222 116 -134 67 -241 124 -238 126 6 6
300 59 374 68 34 4 59 10 54 14 -8 7 -374 91 -390 89 -4 0 -80 -16 -168 -35z"/>
<path d="M13507 27373 c-21 -60 -40 -120 -42 -135 -3 -15 -21 -78 -41 -140
-44 -143 -143 -500 -150 -549 l-6 -37 140 -46 c127 -41 461 -127 671 -173 l85
-18 -100 -71 c-189 -136 -310 -238 -464 -393 -157 -158 -235 -257 -316 -398
-152 -267 -201 -598 -123 -848 l21 -68 129 129 c72 71 227 231 347 356 119
125 218 225 220 223 3 -3 -296 -404 -619 -830 -5 -6 3 -24 16 -40 l25 -30 32
40 c256 313 545 620 998 1059 l348 338 -55 76 c-62 87 -131 222 -167 330 l-25
73 27 -5 c104 -21 364 -67 366 -64 1 1 12 86 25 188 23 190 50 355 95 589 15
73 25 135 24 136 -2 2 -16 5 -33 8 -135 23 -531 125 -727 188 -225 71 -567
185 -610 203 -21 9 -41 16 -46 16 -4 0 -25 -48 -45 -107z"/>
<path d="M20879 27120 c-24 -14 -266 -96 -404 -136 -97 -29 -356 -94 -472
-120 -30 -6 -29 -12 11 -224 19 -96 51 -266 73 -377 31 -164 41 -203 54 -203
31 0 376 99 574 164 227 75 505 184 511 201 6 14 -309 698 -322 702 -5 1 -16
-2 -25 -7z"/>
<path d="M15345 26978 c-2 -7 -6 -71 -9 -143 -3 -71 -16 -270 -28 -442 -12
-172 -20 -315 -17 -317 6 -6 486 -76 724 -106 244 -30 232 -22 129 -87 -357
-225 -632 -355 -819 -388 -96 -17 -105 -20 -105 -41 0 -7 -29 -104 -66 -214
-75 -230 -178 -495 -324 -830 -174 -400 -250 -583 -245 -588 3 -3 76 -7 163
-10 l157 -4 64 144 c35 78 90 211 121 293 63 163 98 244 185 435 32 69 100
220 151 335 52 116 94 204 94 197 0 -14 -85 -325 -131 -477 -89 -293 -245
-752 -293 -859 l-26 -58 163 7 c208 8 484 30 664 52 l142 17 47 115 c26 64
107 258 179 431 129 307 205 499 321 805 104 276 199 449 308 561 72 75 83 71
121 -36 28 -81 29 -92 29 -250 -1 -188 -18 -316 -88 -665 -53 -260 -141 -804
-132 -813 8 -7 254 47 641 142 l290 71 37 149 c20 82 67 332 103 555 37 223
71 411 77 416 14 13 4 -205 -17 -375 -23 -190 -29 -362 -16 -480 12 -113 36
-200 54 -200 29 0 861 241 873 252 1 2 32 82 69 178 190 495 370 860 516 1047
l49 63 -42 27 -42 28 47 9 c36 7 47 14 47 28 0 11 -13 119 -29 241 -17 122
-32 253 -35 291 -6 78 -24 230 -32 264 -4 20 -9 22 -37 18 -46 -7 -252 -24
-507 -41 -81 -5 -840 -5 -930 0 -30 2 -118 6 -195 10 -77 4 -162 8 -190 10
-318 24 -355 27 -540 45 -55 5 -134 12 -175 15 -41 3 -86 8 -100 10 -28 4
-107 12 -195 21 -33 3 -71 7 -85 9 -14 2 -58 7 -98 10 -41 4 -82 8 -93 10 -11
2 -83 11 -162 20 -78 9 -155 18 -172 21 -16 2 -48 6 -70 9 -57 7 -116 16 -145
20 -389 62 -369 60 -375 43z"/>
<path d="M12885 26534 c-61 -37 -114 -70 -119 -75 -6 -5 44 14 110 42 207 89
192 81 169 90 -37 14 -50 9 -160 -57z"/>
<path d="M24390 26129 c-107 -49 -313 -149 -457 -221 -157 -78 -269 -128 -278
-124 -9 3 -14 2 -11 -3 3 -5 0 -11 -7 -14 -6 -3 -54 -23 -105 -45 l-92 -39
103 -46 c221 -99 602 -234 961 -341 l118 -35 -6 437 c-5 418 -10 522 -25 522
-3 0 -94 -41 -201 -91z"/>
<path d="M19846 25548 c-9 -77 -7 -598 2 -598 18 0 348 167 510 258 196 110
195 101 7 127 -134 19 -157 31 -395 190 -61 41 -112 75 -114 75 -2 0 -6 -24
-10 -52z"/>
<path d="M12575 23121 c49 -33 91 -59 92 -57 2 2 -6 20 -18 40 -17 30 -31 39
-77 52 -32 9 -64 19 -72 21 -8 3 25 -22 75 -56z"/>
<path d="M39552 22774 c-8 -4 17 -27 65 -60 329 -224 784 -717 1413 -1529 136
-175 175 -222 645 -775 405 -476 523 -613 715 -830 86 -96 211 -240 280 -320
191 -224 407 -437 489 -485 41 -24 -136 221 -351 486 -223 274 -322 412 -717
1004 -563 842 -1032 1565 -1231 1897 l-105 176 -51 -5 c-97 -10 -146 16 -367
202 -207 174 -363 234 -627 241 -80 2 -151 1 -158 -2z"/>
<path d="M48890 21335 c-95 -168 -232 -352 -441 -590 -154 -176 -597 -618
-914 -912 -410 -380 -1929 -1919 -2124 -2151 -51 -60 -132 -174 -165 -230 -27
-46 183 128 354 293 273 263 343 326 540 491 489 407 1852 1474 2266 1772 163
118 190 141 183 158 -14 36 -9 113 11 166 11 29 58 106 105 171 158 219 211
336 236 523 12 88 7 262 -9 334 l-8 35 -34 -60z"/>
<path d="M44246 20921 c-208 -289 -280 -545 -255 -900 5 -74 25 -246 44 -382
48 -336 58 -479 45 -642 -38 -463 -220 -790 -524 -937 -164 -79 -395 -112
-630 -90 -77 7 -157 14 -178 14 -20 1 -34 4 -31 9 2 4 -4 7 -15 7 -25 0 -265
159 -507 334 -450 327 -673 451 -954 532 l-95 27 -95 -18 c-198 -37 -429 -120
-639 -231 -57 -30 -214 -125 -349 -211 -272 -172 -466 -277 -588 -319 -107
-35 -232 -37 -318 -4 -78 30 -170 101 -229 178 -39 52 -48 59 -48 40 0 -65
-109 -184 -380 -417 -266 -228 -302 -258 -635 -511 -154 -117 -289 -220 -300
-230 -11 -9 -80 -41 -154 -70 -503 -200 -947 -493 -1219 -803 -225 -258 -341
-461 -436 -767 -65 -211 -95 -402 -99 -633 l-2 -144 -170 -53 c-502 -154
-1101 -393 -1541 -613 l-170 -85 -17 -80 c-33 -150 -113 -274 -226 -350 -95
-63 -189 -96 -516 -182 l-308 -81 -101 -86 c-56 -48 -162 -148 -236 -222 -385
-386 -626 -788 -729 -1213 -44 -183 -55 -283 -54 -488 1 -267 32 -451 122
-732 27 -84 86 -270 131 -413 160 -512 383 -1190 422 -1283 307 -738 784
-1073 1698 -1192 662 -86 1632 -24 2575 165 495 99 898 207 1385 372 168 57
388 127 490 157 681 200 1319 451 1923 756 611 308 1170 663 1582 1004 143
118 396 369 485 481 35 44 67 84 71 89 4 4 99 17 211 27 1245 115 2435 436
3095 836 480 290 741 618 858 1077 70 276 69 254 67 1406 -1 899 -4 1050 -18
1150 -20 145 -71 346 -119 475 -42 113 -137 301 -197 388 -22 33 -38 60 -36
61 8 7 205 59 290 77 136 30 360 37 467 15 180 -37 312 -113 466 -270 124
-126 197 -229 372 -521 75 -126 167 -276 205 -332 248 -372 512 -558 876 -618
140 -24 303 -17 387 15 93 36 166 116 245 269 96 186 140 229 342 332 124 63
175 96 225 142 163 153 201 413 90 620 -18 35 -74 105 -132 167 -170 179 -176
227 -47 378 26 29 75 73 108 98 320 228 355 645 79 931 -38 40 -76 73 -84 73
-12 0 -13 -26 -5 -162 5 -90 9 -233 9 -318 0 -147 -2 -158 -27 -213 -40 -85
-123 -167 -211 -208 -71 -34 -73 -34 -212 -34 -131 1 -146 3 -237 33 -54 18
-247 107 -430 198 -573 285 -772 357 -1148 409 -157 22 -619 31 -776 15 -191
-19 -473 -75 -497 -99 -20 -20 174 -56 348 -66 178 -10 283 -24 408 -56 159
-40 487 -149 732 -244 738 -284 1036 -445 1281 -689 98 -98 128 -135 155 -191
31 -64 34 -77 34 -165 0 -86 -3 -101 -33 -161 -84 -174 -321 -302 -529 -285
-138 11 -298 81 -452 198 -89 68 -259 237 -451 448 -413 454 -676 660 -982
768 -145 51 -227 65 -393 65 -176 0 -296 -18 -616 -92 -315 -73 -276 -72 -361
-8 -322 241 -700 430 -1183 589 -104 34 -191 63 -193 64 -1 1 -10 55 -18 120
-11 83 -15 162 -11 263 3 85 1 138 -4 130 -5 -8 -9 -11 -9 -8 0 12 83 175 146
286 35 63 62 118 60 122 -3 5 -19 14 -36 21 -17 7 -29 15 -28 19 59 111 113
234 130 298 l23 82 90 3 90 3 91 181 c52 104 109 235 133 307 41 126 81 289
81 338 0 40 -77 271 -129 389 -95 211 -194 367 -419 660 -116 150 -269 370
-323 464 l-15 27 -58 -80z m-4977 -3252 c6 -27 11 -68 11 -89 0 -45 15 -40
-185 -65 -66 -8 -142 -18 -170 -21 l-50 -6 75 77 c85 87 179 159 237 179 35
13 39 13 55 -5 9 -11 21 -42 27 -70z m4407 -914 c13 -8 24 -22 24 -30 0 -68
-221 -146 -394 -139 -123 5 -156 29 -100 73 15 12 23 21 19 21 -14 0 29 41 60
58 75 40 338 52 391 17z m-1142 -191 c32 -12 18 -44 -29 -65 -53 -24 -100 -16
-100 17 0 33 85 65 129 48z m-3981 -448 c164 -13 233 -40 305 -124 63 -72 69
-109 23 -141 -54 -39 -123 -49 -303 -46 -91 1 -170 5 -175 8 -4 3 -35 7 -69
11 -65 6 -218 47 -264 71 -15 8 -42 26 -59 41 -53 44 -38 105 35 142 42 22
111 32 254 38 80 4 147 8 148 10 2 1 9 1 15 -1 7 -2 47 -6 90 -9z m5613 -110
c59 -18 86 -42 60 -52 -9 -3 -16 -17 -16 -31 0 -89 -238 -154 -545 -148 -211
4 -361 35 -377 77 -9 24 11 57 49 82 70 47 164 71 313 82 41 3 99 9 128 12 86
11 330 -3 388 -22z m-5706 -426 c54 -12 100 -30 100 -39 0 -9 -299 -53 -310
-46 -6 4 -10 14 -10 24 0 53 114 84 220 61z m5727 -255 c58 -38 -4 -99 -114
-111 -90 -9 -226 2 -271 24 -51 23 -54 55 -10 82 27 17 49 20 126 19 51 -1 96
1 99 4 12 12 145 -2 170 -18z m-1131 -110 c30 -12 35 -19 32 -42 -7 -59 -134
-81 -218 -38 -24 13 -28 19 -21 38 17 46 138 71 207 42z m1965 -240 c173 -27
283 -60 362 -108 70 -43 62 -89 -21 -124 -67 -28 -324 -38 -444 -18 -16 3 -40
7 -55 10 -16 3 -58 13 -96 24 -129 37 -188 86 -173 144 7 30 68 75 112 83 16
3 30 6 31 8 12 12 147 3 284 -19z m-6223 -159 c9 -77 -248 -238 -405 -253 -61
-6 -76 10 -49 52 9 13 16 34 16 45 0 35 83 106 159 135 110 42 192 61 236 55
35 -4 40 -9 43 -34z m5497 -326 c73 -35 92 -115 35 -145 -38 -19 -104 -19
-120 0 -7 8 -28 15 -47 15 -46 0 -151 47 -158 71 -12 37 41 78 120 91 34 6
128 -12 170 -32z m-6537 -182 c5 -26 -46 -77 -85 -84 -39 -7 -54 5 -46 37 13
48 123 88 131 47z m1773 -34 c7 -4 8 -9 0 -17 -5 -5 -7 -23 -4 -38 7 -34 -22
-83 -72 -122 -58 -46 -241 -133 -370 -175 -182 -60 -393 -81 -418 -41 -28 45
52 140 169 201 169 89 425 181 543 196 63 8 136 6 152 -4z m4059 -208 c8 -2
38 -7 65 -10 62 -6 232 -55 305 -88 65 -30 160 -98 160 -115 0 -7 -6 -16 -13
-20 -7 -4 -13 -24 -13 -43 1 -30 -4 -37 -41 -58 -58 -32 -69 -34 -238 -37
-154 -4 -277 11 -412 50 -88 25 -219 91 -258 131 -31 31 -36 41 -33 76 7 90
115 131 333 124 72 -3 137 -7 145 -10z m-775 -409 c28 -22 12 -65 -31 -83 -76
-32 -138 -15 -132 35 6 48 117 81 163 48z m-3103 -30 c10 -15 0 -47 -21 -71
-41 -47 -217 -111 -316 -115 -128 -5 -104 96 30 129 22 6 63 20 90 31 104 45
198 56 217 26z m1208 -53 c30 -3 68 -13 83 -21 24 -12 28 -19 22 -41 -12 -48
-35 -72 -103 -105 -205 -100 -439 -146 -616 -123 -160 21 -134 156 44 226 30
12 62 23 70 25 65 12 106 18 113 17 4 -1 28 3 55 9 26 6 74 13 107 16 33 3 62
6 64 8 3 4 56 0 161 -11z m-2239 -391 c18 -18 2 -59 -31 -83 -58 -42 -180 -51
-193 -15 -8 19 37 71 82 94 40 21 123 23 142 4z m1406 -320 c37 -17 58 -64 42
-95 -23 -43 -117 -76 -134 -47 -4 6 -14 7 -24 4 -42 -18 -83 -22 -130 -12 -63
12 -79 33 -56 77 40 78 204 118 302 73z m-5736 -164 c27 -12 49 -25 49 -29 0
-5 16 -14 36 -20 58 -19 63 -73 11 -128 -95 -103 -595 -216 -777 -177 -41 9
-92 33 -102 49 -13 19 -9 56 8 84 26 44 69 71 172 114 289 118 493 154 603
107z m5592 -433 c31 -9 73 -23 93 -31 35 -14 36 -16 21 -38 -12 -19 -12 -24
-1 -35 8 -7 14 -19 14 -27 0 -28 -62 -85 -124 -114 -64 -30 -234 -85 -296 -95
-19 -3 -46 -9 -60 -12 -66 -14 -287 -13 -360 2 -131 28 -178 68 -160 136 27
96 220 183 490 222 113 16 309 12 383 -8z m-5680 -115 c34 -13 39 -35 16 -65
-44 -55 -295 -102 -317 -58 -24 44 44 104 143 125 38 9 134 7 158 -2z m-89
-510 c61 -51 -64 -165 -299 -273 -179 -83 -405 -149 -455 -133 -25 8 -33 35
-21 68 23 60 284 202 571 312 47 18 157 43 176 41 7 -1 19 -8 28 -15z m4724
-34 c2 -18 -4 -37 -15 -49 -43 -47 -124 -64 -142 -30 -23 43 55 115 119 110
30 -3 35 -7 38 -31z m-3480 -489 c26 -26 13 -59 -52 -124 -58 -58 -114 -92
-196 -119 -7 -2 -71 -14 -102 -19 -28 -5 -58 15 -58 37 0 21 106 112 170 146
36 19 71 39 79 45 18 15 101 44 127 45 11 1 25 -4 32 -11z m644 -325 c14 -14
20 -34 20 -65 0 -56 -28 -101 -109 -180 -203 -197 -647 -353 -704 -247 -25 48
80 174 238 283 37 26 105 75 150 109 162 122 339 165 405 100z m516 -90 c4
-29 -50 -89 -94 -103 -45 -15 -84 -6 -84 19 0 35 13 53 59 83 56 35 114 36
119 1z m-2078 -33 c0 -31 -65 -95 -123 -122 -52 -25 -136 -41 -155 -29 -24 15
-16 45 18 68 19 12 44 31 55 42 80 76 205 101 205 41z"/>
<path d="M49855 18758 c-81 -43 -230 -92 -329 -109 -124 -21 -303 -6 -551 45
-170 35 -242 46 -315 46 -296 0 -580 -109 -1115 -428 -137 -81 -376 -220 -530
-307 -331 -187 -568 -329 -795 -473 -166 -106 -479 -321 -535 -367 l-30 -25
55 21 c129 48 390 163 744 326 208 96 454 205 545 243 201 83 824 315 1011
377 264 87 537 143 694 143 42 0 76 3 76 8 -1 4 -9 32 -20 62 -23 66 -26 150
-5 189 30 60 105 101 182 101 17 0 103 -14 190 -31 137 -26 173 -30 268 -26
173 8 304 51 428 141 61 43 114 93 106 99 -2 2 -35 -14 -74 -35z"/>
</g>
</svg>
